<?xml version="1.0" encoding="UTF-8" standalone="no"?>
<svg
   xmlns:dc="http://purl.org/dc/elements/1.1/"
   xmlns:cc="http://creativecommons.org/ns#"
   xmlns:rdf="http://www.w3.org/1999/02/22-rdf-syntax-ns#"
   xmlns:svg="http://www.w3.org/2000/svg"
   xmlns="http://www.w3.org/2000/svg"
   xmlns:sodipodi="http://sodipodi.sourceforge.net/DTD/sodipodi-0.dtd"
   xmlns:inkscape="http://www.inkscape.org/namespaces/inkscape"
   aria-hidden="true"
   focusable="false"
   data-prefix="fas"
   data-icon="user"
   class="svg-inline--fa fa-user fa-w-14"
   role="img"
   viewBox="0 0 550 550"
   version="1.1"
   id="svg4"
   sodipodi:docname="user-solid.svg"
   width="550"
   height="550"
   inkscape:version="0.92.4 (5da689c313, 2019-01-14)">
  <metadata
     id="metadata10">
    <rdf:RDF>
      <cc:Work
         rdf:about="">
        <dc:format>image/svg+xml</dc:format>
        <dc:type
           rdf:resource="http://purl.org/dc/dcmitype/StillImage" />
        <dc:title></dc:title>
      </cc:Work>
    </rdf:RDF>
  </metadata>
  <defs
     id="defs8" />
  <sodipodi:namedview
     pagecolor="#ffffff"
     bordercolor="#666666"
     borderopacity="1"
     objecttolerance="10"
     gridtolerance="10"
     guidetolerance="10"
     inkscape:pageopacity="0"
     inkscape:pageshadow="2"
     inkscape:window-width="1920"
     inkscape:window-height="1017"
     id="namedview6"
     showgrid="false"
     inkscape:zoom="0.4609375"
     inkscape:cx="224"
     inkscape:cy="256"
     inkscape:window-x="1912"
     inkscape:window-y="-8"
     inkscape:window-maximized="1"
     inkscape:current-layer="svg4" />
  <path
     d="M 275,294 C 345.7,294 403,236.7 403,166 403,95.3 345.7,38 275,38 204.3,38 147,95.3 147,166 c 0,70.7 57.3,128 128,128 z m 89.6,32 h -16.7 c -22.2,10.2 -46.9,16 -72.9,16 -26,0 -50.6,-5.8 -72.9,-16 H 185.4 C 111.2,326 51,386.2 51,460.4 V 502 c 0,26.5 21.5,48 48,48 h 352 c 26.5,0 48,-21.5 48,-48 V 460.4 C 499,386.2 438.8,326 364.6,326 Z"
     id="path2"
     inkscape:connector-curvature="0"
     style="fill:#d40000;fill-opacity:1" />
</svg>
